<svg width="36" height="36" viewBox="0 0 36 36" fill="none" xmlns="http://www.w3.org/2000/svg">
<path d="M14.4034 15.7486C14.3588 14.3285 14.3884 12.8677 14.4261 11.8094C15.3615 12.3059 16.6413 13.0107 17.8489 13.7594C18.6286 14.2428 19.3613 14.7342 19.9461 15.1912C20.561 15.6718 20.9073 16.0353 21.0312 16.2498C21.155 16.4643 21.2966 16.9459 21.4054 17.7188C21.5088 18.4537 21.568 19.334 21.5968 20.251C21.6414 21.6711 21.6118 23.1319 21.5741 24.1902C20.6387 23.6937 19.3589 22.9889 18.1514 22.2402C17.3716 21.7568 16.6389 21.2654 16.0541 20.8084C15.4392 20.3277 15.0929 19.9643 14.969 19.7498C14.8452 19.5353 14.7036 19.0536 14.5948 18.2807C14.4914 17.5459 14.4322 16.6656 14.4034 15.7486Z" stroke="#333333" stroke-width="2"/>
<circle cx="18" cy="18" r="13.5" stroke="#333333" stroke-width="2"/>
</svg>
