<svg width="28" height="28" viewBox="0 0 28 28" fill="none" xmlns="http://www.w3.org/2000/svg">
<path d="M14.3986 23.1385L13.9426 22.2486L13.9426 22.2486L14.3986 23.1385ZM13.6014 23.1385L14.0574 22.2486L14.0574 22.2486L13.6014 23.1385ZM21.1666 12.8333C21.1666 15.4307 19.8266 17.5573 18.1913 19.186C16.5576 20.8131 14.7174 21.8516 13.9426 22.2486L14.8546 24.0285C15.7181 23.5861 17.7619 22.4365 19.6027 20.6031C21.4418 18.7713 23.1666 16.165 23.1666 12.8333H21.1666ZM14 5.66667C17.958 5.66667 21.1666 8.8753 21.1666 12.8333H23.1666C23.1666 7.77073 19.0626 3.66667 14 3.66667V5.66667ZM6.83331 12.8333C6.83331 8.8753 10.0419 5.66667 14 5.66667V3.66667C8.93737 3.66667 4.83331 7.77073 4.83331 12.8333H6.83331ZM14.0574 22.2486C13.2826 21.8516 11.4423 20.8131 9.80864 19.186C8.17336 17.5573 6.83331 15.4307 6.83331 12.8333H4.83331C4.83331 16.165 6.55812 18.7713 8.39728 20.6031C10.238 22.4365 12.2818 23.5861 13.1454 24.0285L14.0574 22.2486ZM13.9426 22.2486C13.9549 22.2422 13.9751 22.236 14 22.236C14.0249 22.236 14.045 22.2422 14.0574 22.2486L13.1454 24.0285C13.6852 24.3051 14.3147 24.3051 14.8546 24.0285L13.9426 22.2486ZM16.5 12.8333C16.5 14.2141 15.3807 15.3333 14 15.3333V17.3333C16.4853 17.3333 18.5 15.3186 18.5 12.8333H16.5ZM14 10.3333C15.3807 10.3333 16.5 11.4526 16.5 12.8333H18.5C18.5 10.3481 16.4853 8.33334 14 8.33334V10.3333ZM11.5 12.8333C11.5 11.4526 12.6193 10.3333 14 10.3333V8.33334C11.5147 8.33334 9.49998 10.3481 9.49998 12.8333H11.5ZM14 15.3333C12.6193 15.3333 11.5 14.2141 11.5 12.8333H9.49998C9.49998 15.3186 11.5147 17.3333 14 17.3333V15.3333Z" fill="#333333"/>
</svg>
