<svg width="188" height="25" viewBox="0 0 188 25" fill="none" xmlns="http://www.w3.org/2000/svg">
<path fill-rule="evenodd" clip-rule="evenodd" d="M36.9472 9.66318H40.4429C41.5167 9.66318 42.1643 9.99586 42.535 10.384C43.2918 11.1618 43.2918 12.3993 43.2918 13.472C43.2918 14.6198 43.238 16.191 42.5716 16.988C41.9045 17.7825 40.7407 17.838 40.0743 17.838C39.1667 17.838 38.058 17.6722 37.4467 16.766C37.0956 16.2657 36.9479 15.5089 36.9479 14.8059V9.66353L36.9472 9.66318ZM43.6985 6.51689V5.64838H39.3894C38.2968 5.64838 37.0949 6.11091 36.4847 7.14594C36.0221 7.923 35.9844 8.82887 35.9844 9.45897V14.601C35.9844 15.3787 36.0218 16.2301 36.5035 17.062C37.4076 18.6179 39.0546 18.7093 40.1109 18.7093C41.2008 18.7093 42.7727 18.5592 43.6444 17.1545C44.2155 16.2301 44.3268 14.8596 44.3268 13.6026C44.3268 12.5484 44.271 11.2718 43.6803 10.3449C42.9029 9.10779 41.4605 8.79152 40.3881 8.79152H36.9469C36.9643 8.20017 37.2069 7.57287 37.6136 7.16444C38.0367 6.73996 38.7398 6.51689 39.4442 6.51689H43.6981H43.6985Z" fill="#FEFEFE"/>
<path fill-rule="evenodd" clip-rule="evenodd" d="M46.4726 13.1596C46.4918 12.1975 46.547 11.4944 46.9369 10.8465C47.6207 9.69944 48.6739 9.66349 49.6559 9.66349C50.5234 9.66349 51.4865 9.68024 52.1899 10.5128C52.524 10.9034 52.857 11.5496 52.857 12.512C52.857 12.6415 52.8755 13.1599 52.4482 13.1599H46.473L46.4726 13.1596ZM53.2431 18.5969V17.7273H48.823C47.5272 17.7273 46.8618 16.8214 46.6391 16.0248C46.4915 15.5085 46.4534 14.6013 46.4726 14.0284H52.4479C52.7278 14.0284 53.1886 13.9907 53.4832 13.7331C53.8707 13.4001 53.8899 12.7337 53.8899 12.4558C53.8899 10.4035 52.7055 9.58808 52.319 9.34896C51.5228 8.88643 50.5059 8.79218 49.8203 8.79218C48.8415 8.79218 47.6396 8.92308 46.7512 9.66384C45.5112 10.6999 45.4365 12.3633 45.4365 13.7334C45.4365 15.1752 45.4746 16.4161 46.2335 17.3953C46.9903 18.3955 48.0257 18.5976 48.8226 18.5976H53.2427L53.2431 18.5969Z" fill="#FEFEFE"/>
<path fill-rule="evenodd" clip-rule="evenodd" d="M54.2579 18.5972H55.354L58.7188 10.0147C58.7568 9.90367 58.8102 9.7183 58.9021 9.7183C58.9956 9.7183 59.0508 9.90332 59.0888 10.0147L62.4557 18.5972H63.5473L59.8666 9.45928C59.5688 8.73808 59.0888 8.68292 58.9021 8.68292C58.7188 8.68292 58.2371 8.73843 57.941 9.45928L54.2575 18.5972H54.2579Z" fill="#FEFEFE"/>
<path fill-rule="evenodd" clip-rule="evenodd" d="M106.054 8.79187C105.447 8.79187 105.168 9.05229 105.058 9.21915C104.872 9.49597 104.854 9.9037 104.854 10.2182V18.5973H105.816V10.2182C105.816 10.0517 105.834 9.82865 105.907 9.75534C105.965 9.69914 106.148 9.66353 106.222 9.66353H111.253C111.328 9.66353 111.514 9.69914 111.567 9.75534C111.641 9.8283 111.659 10.0517 111.659 10.2182V18.5973H112.623V10.2182C112.623 9.9037 112.605 9.49632 112.419 9.2195C112.308 9.05264 112.031 8.79222 111.419 8.79222H106.054V8.79187Z" fill="#FEFEFE"/>
<path fill-rule="evenodd" clip-rule="evenodd" d="M115.434 17.7277V10.1438C115.434 10.015 115.453 9.90366 115.582 9.79125C115.656 9.73679 115.786 9.66349 115.878 9.66349H118.709C119.596 9.66349 120.614 10.0517 121.076 11.0877C121.297 11.5852 121.428 12.3259 121.428 13.6779C121.428 14.9545 121.316 15.9323 120.872 16.6183C120.373 17.3761 119.485 17.728 118.598 17.728H115.434V17.7277ZM115.434 18.5972H118.208C119.798 18.5972 120.91 18.3019 121.686 17.136C122.389 16.0625 122.463 14.7863 122.463 13.5467C122.463 12.3825 122.425 10.9753 121.428 9.92111C120.466 8.88643 119.152 8.79218 118.504 8.79218H116.024C115.749 8.79218 115.303 8.81207 114.932 9.08959C114.786 9.1999 114.471 9.49593 114.471 10.015V21.7449H115.433V18.5972H115.434Z" fill="#FEFEFE"/>
<path fill-rule="evenodd" clip-rule="evenodd" d="M124.61 13.7328C124.61 12.88 124.61 11.3266 125.386 10.4577C126.145 9.62584 127.494 9.55044 128.421 9.55044C129.344 9.55044 130.695 9.62584 131.452 10.4577C132.231 11.3266 132.231 12.8803 132.231 13.7328C132.231 14.5284 132.249 16.0081 131.435 16.8958C130.658 17.7455 129.418 17.8373 128.421 17.8373C127.42 17.8373 126.183 17.7455 125.406 16.8958C124.59 16.0081 124.61 14.5284 124.61 13.7328ZM123.574 13.6392C123.574 15.7659 124.165 16.9685 124.793 17.5985C125.867 18.6552 127.55 18.71 128.421 18.71C129.288 18.71 130.972 18.6556 132.044 17.5985C132.675 16.9688 133.265 15.7662 133.265 13.6392C133.265 12.5484 133.118 10.8096 132.044 9.75535C131.083 8.81143 129.658 8.68262 128.421 8.68262C127.18 8.68262 125.756 8.81143 124.793 9.75535C123.719 10.8096 123.574 12.5484 123.574 13.6392Z" fill="#FEFEFE"/>
<path fill-rule="evenodd" clip-rule="evenodd" d="M144.274 10.0321C144.292 9.97629 144.346 9.86703 144.401 9.86703C144.477 9.86703 144.477 9.95884 144.477 9.99689V18.5976H145.439V9.69947C145.439 9.05262 145.105 8.68329 144.512 8.68329C143.996 8.68329 143.755 8.90321 143.57 9.34899L140.295 17.2288C140.204 17.4317 140.147 17.5615 140.092 17.5615C140.037 17.5615 139.981 17.4317 139.888 17.2288L136.615 9.34899C136.429 8.90286 136.189 8.68329 135.671 8.68329C135.079 8.68329 134.747 9.05262 134.747 9.69947V18.5976H135.708V9.99689C135.708 9.95884 135.708 9.86738 135.782 9.86738C135.838 9.86738 135.893 9.97699 135.912 10.0325L139.204 18.0045C139.407 18.5037 139.816 18.71 140.092 18.71C140.37 18.71 140.777 18.5037 140.982 18.0045L144.274 10.0325L144.274 10.0321Z" fill="#FEFEFE"/>
<path fill-rule="evenodd" clip-rule="evenodd" d="M71.1133 14.1587V16.4151C71.1133 16.5632 71.1133 16.6934 70.966 16.8215C70.8191 16.9307 70.6148 16.9311 70.485 16.9311H67.4714C67.1924 16.9311 66.9146 16.7841 66.768 16.6361C66.5079 16.3589 66.4709 15.8423 66.4709 15.5459C66.4709 14.8422 66.637 14.5818 66.7111 14.491C66.9516 14.1765 67.3586 14.159 67.5063 14.159H71.1133V14.1587ZM64.9552 8.79187V10.4577H69.7816C70.1143 10.4577 70.5398 10.5128 70.8379 10.8822C71.0767 11.1806 71.113 11.5119 71.113 11.8086V12.4925H66.858C66.3407 12.4925 65.6739 12.5281 65.0634 13.0671C64.3258 13.7129 64.2329 14.5811 64.2329 15.4524C64.2329 16.1722 64.2877 17.431 65.0847 18.1169C65.639 18.5969 66.3246 18.5969 66.858 18.5969H71.5396C72.0021 18.5969 72.5386 18.5592 72.8902 18.2084C73.2417 17.8572 73.278 17.3015 73.278 16.951V11.8642C73.278 10.7719 72.9624 9.97666 72.5554 9.55008C72.1121 9.08929 71.3521 8.79187 70.5223 8.79187H64.9548H64.9552Z" fill="#FEFEFE"/>
<path fill-rule="evenodd" clip-rule="evenodd" d="M76.5332 18.5972V11.2347C76.5332 10.9956 76.514 10.8099 76.682 10.6434C76.7734 10.5505 76.9385 10.458 77.1246 10.458H82.1737V8.79218H75.7366C75.3296 8.79218 74.8692 8.84838 74.5724 9.31091C74.3696 9.62613 74.3696 10.0154 74.3696 10.4039V18.5979H76.5336L76.5332 18.5972Z" fill="#FEFEFE"/>
<path fill-rule="evenodd" clip-rule="evenodd" d="M85.0969 16.9307V10.9209C85.0969 10.8095 85.135 10.6996 85.246 10.5875C85.3197 10.5317 85.4485 10.4577 85.542 10.4577H87.6686C88.63 10.4577 89.2779 10.9387 89.5544 11.5667C89.6671 11.8261 89.8148 12.3458 89.8148 13.6779C89.8148 15.1389 89.612 15.7309 89.4057 16.0248C89.1672 16.4158 88.63 16.931 87.5559 16.931H85.0969V16.9307ZM85.0969 18.5965H87.8365C88.8342 18.5965 90.3517 18.5218 91.2747 17.1904C91.9795 16.1913 92.0524 14.7859 92.0524 13.4915C92.0524 12.4178 92.0158 10.9031 91.0167 9.867C90.0728 8.88573 88.7599 8.79218 88.1312 8.79218H84.7091C84.3405 8.79218 83.8591 8.82883 83.4877 9.10775C83.2472 9.29416 82.934 9.66314 82.934 10.3096V21.7446H85.0969V18.5965Z" fill="#FEFEFE"/>
<path fill-rule="evenodd" clip-rule="evenodd" d="M95.2528 13.7129C95.2528 13.0846 95.2528 11.8261 95.8637 11.1231C96.4722 10.4197 97.5302 10.3456 98.2319 10.3456C99.0079 10.3456 99.9515 10.4197 100.58 11.1231C101.264 11.883 101.209 12.9931 101.209 13.7133C101.209 14.564 101.209 15.5089 100.563 16.2305C99.9131 16.9513 99.0456 17.0421 98.2319 17.0421C97.4541 17.0421 96.5102 16.9513 95.8815 16.2305C95.2706 15.5267 95.2532 14.5287 95.2532 13.7133L95.2528 13.7129ZM98.2315 8.68262C97.0656 8.68262 95.346 8.71822 94.274 9.71835C93.1433 10.7719 93.0152 12.6227 93.0152 13.7328C93.0152 14.7312 93.1074 16.582 94.274 17.6541C95.346 18.6364 97.0656 18.71 98.2315 18.71C99.3601 18.71 101.136 18.6364 102.189 17.6541C102.911 16.9688 103.448 15.7306 103.448 13.6584C103.448 12.6227 103.316 10.7719 102.189 9.71835C101.117 8.71787 99.3971 8.68262 98.2315 8.68262Z" fill="#FEFEFE"/>
<path fill-rule="evenodd" clip-rule="evenodd" d="M149.266 10.864H152.078C153.078 10.864 153.577 11.3468 153.762 11.5855C154.076 11.9922 154.261 12.6956 154.261 13.9338C154.261 14.7315 154.206 15.8765 153.594 16.4504C153.189 16.8403 152.375 17.0424 151.709 17.0424C150.803 17.0424 150.136 16.7659 149.767 16.3394C149.508 16.044 149.266 15.5455 149.266 14.7859V10.8636V10.864ZM155.926 7.31381V5.64868H150.653C148.823 5.64868 147.99 6.55525 147.638 7.14695C147.178 7.92331 147.102 8.84838 147.102 9.47847V14.5814C147.102 15.4335 147.102 16.2849 147.602 17.136C148.527 18.71 150.376 18.71 151.744 18.71C153.206 18.71 154.872 18.6932 155.816 17.2288C156.5 16.1725 156.5 14.6575 156.5 13.7876C156.5 12.7333 156.446 11.5311 155.854 10.6434C155.353 9.8855 154.372 9.1999 152.56 9.1999H149.266C149.247 8.62706 149.489 8.07167 149.784 7.79345C150.304 7.31381 151.116 7.31381 151.653 7.31381H155.925H155.926Z" fill="#FEFEFE"/>
<path fill-rule="evenodd" clip-rule="evenodd" d="M164.342 14.1587V16.4151C164.342 16.5632 164.342 16.6934 164.195 16.8215C164.048 16.9307 163.843 16.9311 163.714 16.9311H160.699C160.422 16.9311 160.146 16.7841 159.997 16.6361C159.738 16.3589 159.701 15.8423 159.701 15.5459C159.701 14.8422 159.867 14.5818 159.942 14.491C160.18 14.1765 160.588 14.159 160.736 14.159H164.342V14.1587ZM158.184 8.79187V10.4577H163.012C163.345 10.4577 163.77 10.5128 164.065 10.8822C164.307 11.1806 164.342 11.5119 164.342 11.8086V12.4925H160.088C159.571 12.4925 158.906 12.5281 158.294 13.0671C157.554 13.7129 157.462 14.5811 157.462 15.4524C157.462 16.1722 157.517 17.431 158.313 18.1169C158.868 18.5969 159.552 18.5969 160.088 18.5969H164.768C165.231 18.5969 165.768 18.5592 166.119 18.2084C166.471 17.8572 166.507 17.3015 166.507 16.951L166.508 11.8642C166.508 10.7719 166.192 9.97666 165.787 9.55008C165.343 9.08929 164.585 8.79187 163.75 8.79187H158.184H158.184Z" fill="#FEFEFE"/>
<path fill-rule="evenodd" clip-rule="evenodd" d="M176.997 18.5973V8.79187H174.832V12.7145H170.152V8.79187H167.988V18.5973H170.152V14.3789H174.832V18.5973H176.997Z" fill="#FEFEFE"/>
<path fill-rule="evenodd" clip-rule="evenodd" d="M187.799 18.5973L183.618 14.2309C183.471 14.0847 183.267 13.7516 183.267 13.5467C183.267 13.2336 183.562 12.9191 183.729 12.7522L187.447 8.79222H184.877L181.749 12.2715C181.472 12.5847 181.065 13.0489 181.065 13.5471C181.065 14.0473 181.398 14.4547 181.619 14.6952L185.19 18.5976H187.799L187.799 18.5973ZM180.639 8.79187H178.478V18.5973H180.639V8.79187Z" fill="#FEFEFE"/>
<path fill-rule="evenodd" clip-rule="evenodd" d="M19.8536 18.9544C17.7738 21.2025 15.6615 21.8472 14.439 22.0242C14.3762 20.6886 14.623 18.3131 16.7133 16.1048C18.7038 14.0026 20.9117 13.3278 22.2749 13.1152C22.1363 14.6006 21.6252 17.0351 19.8533 18.9544H19.8536ZM10.6064 22.0242C9.39267 21.8469 7.27792 21.2035 5.19599 18.9544C3.423 17.0354 2.91264 14.6013 2.77336 13.1152C4.13618 13.3275 6.34448 14.0005 8.33565 16.1048C10.4256 18.3131 10.6714 20.6889 10.6064 22.0242ZM12.3005 1.1005C12.9373 1.50369 13.1258 2.34254 12.7236 2.97787C12.3211 3.60971 11.4805 3.79926 10.8466 3.40026L10.8473 3.40131C10.8417 3.39712 10.02 2.88781 9.16472 2.68499C8.43653 2.5101 7.98307 1.77737 8.15622 1.04744C8.33006 0.315414 9.06279 -0.13595 9.79411 0.0368459C11.077 0.344039 12.1801 1.02335 12.3005 1.10085V1.1005ZM12.2977 5.72271C12.1745 5.62776 10.4668 4.32463 8.65331 3.64532C6.79933 2.88746 5.14782 2.66335 4.97398 2.63542L4.96664 2.63437L4.96176 2.63263C4.2203 2.50417 3.51481 2.99637 3.38111 3.73817C3.2502 4.47439 3.74416 5.18233 4.48526 5.31324H4.48072L4.48316 5.31394C4.55124 5.32371 6.18634 5.62741 7.69508 6.18944C8.42606 6.49384 9.05895 6.83698 9.54731 7.13475L9.55883 7.14173L9.56128 7.14348C10.1921 7.5362 10.6288 7.87062 10.6378 7.87725L10.6333 7.87586C11.2285 8.33525 12.0862 8.22773 12.5449 7.63359C13.005 7.03945 12.8964 6.18594 12.3019 5.72585L12.2977 5.72271V5.72236V5.72271ZM12.8353 11.0284C13.2752 11.6386 13.1355 12.4886 12.5239 12.9264C11.9151 13.3666 11.0665 13.227 10.6284 12.6154L10.642 12.6363C10.6323 12.623 9.36684 11.2867 6.65411 10.0817C4.06601 8.93148 2.16002 8.78277 2.13593 8.77928H2.13767C1.39343 8.6784 0.868758 7.99803 0.964756 7.25414C1.06424 6.50885 1.74496 5.98313 2.48955 6.08017C2.59777 6.09309 4.82631 6.27042 7.79422 7.59275C11.2048 9.10777 12.7118 10.8535 12.8357 11.0281L12.8353 11.0284ZM25.0319 11.5587C24.9785 10.8891 24.4455 10.3564 23.7724 10.3104C23.57 10.2967 18.7439 10.0007 14.7382 14.2361C13.6815 15.3522 12.9837 16.5052 12.5236 17.6083C12.0646 16.5055 11.3639 15.3522 10.3135 14.2361C6.30363 10.0011 1.4793 10.2967 1.27544 10.3104C0.603105 10.3564 0.0683102 10.8891 0.0173441 11.5608C0.000239044 11.7779 -0.353382 16.9569 3.19609 20.8021C7.2856 25.2228 11.3604 24.9973 12.5582 24.9973C13.7545 24.9973 17.7665 25.2225 21.8521 20.8021C25.403 16.9545 25.0494 11.7779 25.0319 11.5583V11.5587Z" fill="#F1643B"/>
</svg>
