<svg width="158" height="56" viewBox="0 0 158 56" fill="none" xmlns="http://www.w3.org/2000/svg">
<path d="M95.9773 29.6957C98.0375 29.8837 100.095 30.0611 102.152 30.2676C103.066 30.3603 103.283 30.1087 102.823 29.2588C101.268 26.3937 99.7886 23.4863 98.1986 20.6424C97.3613 19.1463 97.4221 17.7985 98.4389 16.464C102.123 11.6315 105.776 6.77525 109.167 1.72831C110.055 0.404346 110.903 1.16959 111.711 1.77067C116.655 5.44775 121.591 9.13543 126.517 12.8337C136.572 20.4015 146.765 27.7865 156.608 35.6323C157.179 36.0877 158.217 36.3578 157.961 37.372C157.697 38.4629 156.624 38.553 155.721 38.6668C148.59 39.5777 141.406 40.3085 134.288 41.3889C126.298 42.6016 118.364 44.1798 110.39 45.4932C99.6856 47.2567 88.9967 49.1367 78.1969 50.2991C77.8459 50.3221 77.4996 50.3916 77.1668 50.5057C76.5884 50.736 76.0179 51.0962 75.524 50.3998C75.0301 49.7034 75.4553 49.1632 75.8409 48.6098C77.7426 45.9062 79.3828 43.0491 81.0546 40.192C82.9985 36.8874 84.9768 33.6119 87.3354 30.5801C88.0987 29.6003 88.9412 29.2323 90.1773 29.3991C92.0922 29.6639 94.0281 29.7777 95.9536 29.9552L95.9773 29.6957ZM78.321 48.3873C102.422 45.7791 125.844 40.0914 149.723 37.4647C149.364 37.094 148.849 37.131 148.386 37.0648C146.033 36.7259 143.682 36.3631 141.321 36.1063C131.829 35.0815 122.326 34.1415 112.836 33.0771C105.483 32.2509 98.1141 31.724 90.7319 31.2897C89.8577 31.2368 89.1155 31.3374 88.5186 32.1185C84.6572 37.1734 81.7546 42.8188 78.321 48.3873ZM151.131 33.927C150.999 33.7309 150.855 33.5434 150.7 33.3657C137.732 23.3036 124.46 13.6175 111.307 3.78575C110.58 3.25616 110.203 3.39649 109.743 4.10084C106.965 8.33751 103.861 12.3491 100.808 16.3925C99.8044 17.7165 99.8335 17.7535 101.379 18.3281C114.165 23.0944 127.246 26.9206 140.294 30.8608C143.78 31.9146 147.301 32.8467 151.131 33.927ZM103.941 21.4421C105.221 24.5216 106.809 27.3046 108.217 30.1802C108.378 30.44 108.601 30.6556 108.866 30.8078C109.17 31.0117 109.579 31.1097 109.854 30.8713C110.174 30.6066 109.78 30.3206 109.656 30.077C108.321 27.5526 106.976 25.0371 105.62 22.5304C105.303 21.9425 104.931 21.4103 103.941 21.4421ZM100.01 20.1181C101.725 23.4625 103.383 26.7035 105.029 29.9446C105.071 30.0601 105.137 30.1656 105.222 30.2543C105.307 30.343 105.409 30.413 105.523 30.4599C105.636 30.5067 105.758 30.5293 105.881 30.5263C106.004 30.5233 106.125 30.4947 106.236 30.4424L101.508 20.8278C101.268 20.322 100.922 19.9672 100.01 20.1208V20.1181ZM107.95 22.8587C109.395 25.549 110.755 28.091 112.133 30.6251C112.253 30.8068 112.414 30.9567 112.604 31.062C112.902 31.2553 113.248 31.4565 113.573 31.1732C113.969 30.8263 113.573 30.5377 113.414 30.2623C112.247 28.1943 111.061 26.1369 109.894 24.0715C109.508 23.3936 109.025 22.8932 107.95 22.8614V22.8587ZM112.281 24.2462C113.562 26.6294 114.724 28.7715 115.902 30.9164C116.031 31.1447 116.206 31.3439 116.415 31.5016C116.55 31.6177 116.723 31.6816 116.901 31.6816C117.079 31.6816 117.251 31.6177 117.387 31.5016C117.741 31.2156 117.416 30.9587 117.284 30.7072C116.428 29.0761 115.578 27.4396 114.714 25.8112C114.26 24.9612 113.589 24.3866 112.281 24.2489V24.2462ZM120.955 26.9339C121.811 28.6127 122.54 30.1114 123.332 31.5677C123.8 32.4257 124.555 32.7196 125.775 32.3197C123.948 30.6648 124.051 27.5932 120.955 26.9365V26.9339ZM117.194 25.6735L116.835 25.9065C117.823 27.7415 118.805 29.5791 119.806 31.4089C120.118 31.9782 120.628 32.1503 121.483 31.9384C119.814 29.9419 119.703 26.963 117.194 25.6761V25.6735ZM125.622 28.5729C126.297 29.9641 127.092 31.2932 127.999 32.5448C128.234 32.852 128.575 33.2015 128.99 32.8732C129.33 32.6084 128.937 32.3251 128.826 32.0788C128.485 31.3188 128.099 30.5801 127.74 29.8281C127.333 29.0019 126.744 28.4988 125.622 28.5756V28.5729ZM129.584 29.7195C130.741 31.1732 130.746 33.281 133.102 33.4001C132.312 31.8617 132.064 30.0214 129.581 29.7274L129.584 29.7195ZM134.005 31.0726C134.496 31.9702 134.856 32.6613 135.244 33.326C135.41 33.6172 135.688 33.7947 136.012 33.5908C136.295 33.4054 136.16 33.0956 136.065 32.8679C135.714 32.0285 135.157 31.4142 134.002 31.0752L134.005 31.0726ZM138.971 33.9694C139.214 33.9694 139.536 34.0012 139.457 33.7046C139.282 33.093 139.095 32.431 138.337 32.2668C138.146 32.2244 137.84 32.2085 137.911 32.5316C138.049 33.1697 138.21 33.8344 138.968 33.9641L138.971 33.9694Z" fill="#00B3BF"/>
<path d="M1.13249 50.0846C1.37812 48.1648 2.09124 46.1418 2.98132 44.1824C3.24543 43.6157 3.55973 42.9378 4.30191 43.2635C5.04408 43.5892 4.9622 44.3492 4.65846 44.9741C3.63887 47.0207 3.01172 49.2411 2.80963 51.5198C2.75945 52.1473 2.54551 52.7034 1.8139 52.6372C1.08229 52.571 0.950238 51.999 0.995138 51.3715C1.03211 51.022 1.07174 50.6724 1.13249 50.0846Z" fill="#00B3BF"/>
<path d="M72.6233 25.4562C72.5626 26.097 72.2509 26.33 71.831 26.4094C70.0693 26.7536 68.3023 27.074 66.5486 27.4103C66.334 27.4692 66.105 27.4427 65.9094 27.3365C65.7138 27.2303 65.5666 27.0525 65.4985 26.8402C65.4304 26.6279 65.4466 26.3974 65.5439 26.1968C65.6411 25.9962 65.8118 25.8409 66.0203 25.7633C67.8692 25.0484 69.8395 24.8207 71.8019 24.6539C71.9115 24.6386 72.0231 24.6487 72.1282 24.6833C72.2333 24.718 72.3291 24.7762 72.4083 24.8536C72.4876 24.931 72.5481 25.0255 72.5854 25.1299C72.6226 25.2344 72.6356 25.3459 72.6233 25.4562Z" fill="#00B3BF"/>
<path d="M61.7284 28.3052C61.7148 28.5245 61.6299 28.7332 61.4869 28.8996C61.3438 29.066 61.1504 29.1809 60.9361 29.2267C59.7968 29.5564 58.7041 30.0307 57.6847 30.638C57.2305 30.9267 56.7471 30.9399 56.4117 30.4368C56.3398 30.3372 56.2894 30.2238 56.2637 30.1036C56.2381 29.9835 56.2376 29.8593 56.2625 29.7389C56.2873 29.6186 56.3369 29.5048 56.4081 29.4047C56.4792 29.3047 56.5704 29.2206 56.6758 29.1578C57.8816 28.2652 59.2872 27.6825 60.7697 27.4605C61.4141 27.3599 61.6835 27.8286 61.7284 28.3052Z" fill="#00B3BF"/>
<path d="M32.4641 24.4075C31.537 24.3836 30.9559 24.3625 30.8978 23.6528C30.8397 22.9432 31.3838 22.6175 31.9834 22.5936C33.164 22.5407 34.3604 22.5751 35.5278 22.5936C35.6497 22.5836 35.7724 22.5999 35.8874 22.6414C36.0025 22.6829 36.1074 22.7486 36.195 22.8342C36.2826 22.9198 36.3509 23.0232 36.3953 23.1374C36.4396 23.2517 36.4591 23.3742 36.4522 23.4966C36.4681 24.1427 36.0244 24.291 35.4935 24.3148C34.3551 24.3598 33.2168 24.3863 32.4641 24.4075Z" fill="#00B3BF"/>
<path d="M76.9633 26.0202C76.5169 25.9778 76.1709 25.8613 76.0759 25.3715C76.0217 25.1561 76.0496 24.9281 76.1541 24.7323C76.2586 24.5364 76.4323 24.3866 76.6411 24.3123C78.0413 23.7935 79.551 23.644 81.0254 23.878C81.4586 23.9363 81.5775 24.3123 81.5722 24.6724C81.5778 24.874 81.5066 25.0702 81.3732 25.2212C81.2398 25.3721 81.0541 25.4666 80.8538 25.4853C79.5596 25.6521 78.2548 25.8269 76.9633 26.0202Z" fill="#00B3BF"/>
<path d="M14.6018 30.9348C14.5694 31.1961 14.4425 31.4363 14.2452 31.6101C13.4529 32.3594 12.6737 33.1194 11.8919 33.8767C11.4746 34.2818 11.0045 34.4989 10.5079 34.0673C10.0114 33.6357 10.125 33.1061 10.5079 32.6825C11.3373 31.7928 12.0927 30.813 13.1491 30.1696C13.4898 29.963 13.857 29.8174 14.2373 30.1352C14.3627 30.2246 14.4624 30.3457 14.5264 30.486C14.5904 30.6264 14.6164 30.7812 14.6018 30.9348Z" fill="#00B3BF"/>
<path d="M59.9376 42.3845C59.8346 43.0571 59.9799 43.8965 59.0238 43.8938C58.0677 43.8912 58.1337 43.0994 58.0835 42.4454C58.0069 41.4895 57.9699 40.5309 57.9065 39.5724C57.8722 39.0428 57.999 38.5874 58.5801 38.4682C59.2351 38.3332 59.5388 38.733 59.6629 39.3156C59.8708 40.3247 59.963 41.3544 59.9376 42.3845Z" fill="#00B3BF"/>
<path d="M45.4167 53.201C45.1843 53.8577 44.6534 54.178 44.0486 53.6723C42.9958 52.8184 42.1147 51.7715 41.4523 50.5875C41.3336 50.3969 41.2948 50.167 41.3442 49.9478C41.3937 49.7286 41.5274 49.5379 41.7164 49.4171C41.801 49.3459 41.8996 49.2933 42.0057 49.2626C42.1118 49.2319 42.2231 49.2238 42.3325 49.2387C42.442 49.2537 42.547 49.2914 42.6411 49.3495C42.7351 49.4076 42.816 49.4847 42.8785 49.576C43.6498 50.4683 44.4077 51.366 45.1631 52.2715C45.2711 52.3982 45.3498 52.5471 45.3936 52.7078C45.4375 52.8685 45.4453 53.0369 45.4167 53.201Z" fill="#00B3BF"/>
<path d="M45.7468 24.4687C46.7399 24.7971 47.8043 24.9215 48.7208 25.4617C49.2701 25.7847 49.7614 26.2296 49.418 26.9419C49.0746 27.6542 48.483 27.3391 47.9469 27.1405C47.0462 26.8121 46.1377 26.5103 45.2397 26.174C44.7484 25.9886 44.3892 25.6735 44.5899 25.0778C44.7775 24.5296 45.2133 24.3866 45.7468 24.4687Z" fill="#00B3BF"/>
<path d="M56.3782 31.7476C56.6229 31.9319 56.8526 32.1355 57.0649 32.3566C57.7421 33.213 58.2977 34.1593 58.7157 35.1687C58.9534 35.7168 58.919 36.2278 58.3406 36.5138C57.7622 36.7998 57.3686 36.5138 57.0781 35.9842C56.5684 35.0707 56.0217 34.173 55.5198 33.2622C55.4081 33.0977 55.3521 32.9015 55.3601 32.7026C55.3682 32.5038 55.44 32.3128 55.5647 32.158C55.7747 31.9234 56.0652 31.7769 56.3782 31.7476Z" fill="#00B3BF"/>
<path d="M45.2928 36.9903C44.585 36.7891 44.2364 36.3072 44.5771 35.7034C45.2677 34.4178 46.4268 33.4493 47.8126 32.9999C47.9814 32.943 48.1655 32.952 48.328 33.0251C48.4906 33.0982 48.6196 33.2301 48.6894 33.3944C48.8796 33.7254 48.9192 34.1068 48.6313 34.3662C47.6911 35.2083 46.7244 36.0185 45.7551 36.8288C45.6115 36.9092 45.4551 36.9638 45.2928 36.9903Z" fill="#00B3BF"/>
<path d="M59.2383 47.2036C58.9742 48.1277 58.7391 49.0571 58.4301 49.9733C58.2425 50.5241 57.783 50.8604 57.194 50.6538C56.605 50.4473 56.5416 49.9574 56.7371 49.3616C57.0012 48.5302 57.1808 47.6696 57.4027 46.8223C57.5532 46.2503 57.7566 45.6466 58.4935 45.7631C59.3334 45.8928 59.3149 46.5469 59.2383 47.2036Z" fill="#00B3BF"/>
<path d="M88.6078 24.4131C89.0859 24.4581 89.5692 24.4713 90.0394 24.5534C90.2621 24.5756 90.4672 24.6846 90.6105 24.857C90.7538 25.0294 90.8237 25.2513 90.8053 25.4749C90.8058 25.586 90.7831 25.696 90.7386 25.7977C90.6941 25.8995 90.6287 25.9907 90.5469 26.0656C90.465 26.1405 90.3683 26.1973 90.2632 26.2324C90.158 26.2675 90.0467 26.28 89.9364 26.2693C88.8429 26.2693 87.7503 26.2437 86.6586 26.1925C86.5483 26.1967 86.4383 26.1778 86.3357 26.1369C86.233 26.096 86.14 26.0341 86.0627 25.955C85.9854 25.876 85.9253 25.7816 85.8865 25.6779C85.8477 25.5743 85.8309 25.4636 85.8372 25.3531C85.8264 25.1307 85.9036 24.9131 86.052 24.7475C86.2003 24.5819 86.4079 24.4817 86.6296 24.4687C87.2829 24.4259 87.938 24.4188 88.592 24.4475L88.6078 24.4131Z" fill="#00B3BF"/>
<path d="M28.9149 24.3386C28.6851 25.1701 27.8954 25.1489 27.3117 25.1886C26.3318 25.2548 25.3044 26.1736 24.3641 25.231C23.96 24.8232 24.174 24.2883 24.6705 24.0182C25.727 23.441 26.9155 23.298 28.1041 23.3218C28.6851 23.335 28.9123 23.764 28.9149 24.3386Z" fill="#00B3BF"/>
<path d="M6.33202 40.3826C5.59513 40.1707 5.33895 39.7153 5.55817 39.0586C5.91737 37.9994 6.61463 37.1521 7.35945 36.363C7.4876 36.208 7.66784 36.1052 7.86628 36.0739C8.06471 36.0427 8.26771 36.0853 8.43707 36.1935C8.76458 36.4001 8.99434 36.7417 8.84115 37.0753C8.30364 38.2186 7.60056 39.2759 6.75464 40.2131C6.65691 40.3322 6.44559 40.3428 6.33202 40.3826Z" fill="#00B3BF"/>
<path d="M39.8092 44.8206C39.8621 44.2407 39.8753 43.5946 40.6465 43.5443C41.5075 43.4887 41.5841 44.1533 41.6502 44.7967C41.7241 45.5408 41.8139 46.2822 41.9143 47.0237C41.975 47.5215 41.8139 47.916 41.3279 48.0828C40.7442 48.2682 40.3745 47.9054 40.2081 47.4235C39.8998 46.5921 39.7641 45.7064 39.8092 44.8206Z" fill="#00B3BF"/>
<path d="M52.0431 27.1508C53.3135 27.5215 54.2221 28.0961 54.8507 29.0467C55.1359 29.4756 55.2574 29.9364 54.7926 30.3362C54.3277 30.736 53.8919 30.6381 53.538 30.2091C52.9886 29.5471 52.2174 29.2161 51.5201 28.7925C51.4219 28.7418 51.3345 28.6722 51.2632 28.5876C51.1919 28.503 51.138 28.4051 51.1046 28.2995C51.0712 28.1939 51.059 28.0827 51.0686 27.9724C51.0783 27.862 51.1097 27.7547 51.1609 27.6565C51.2184 27.477 51.3408 27.3255 51.504 27.2319C51.6673 27.1383 51.8596 27.1093 52.0431 27.1508Z" fill="#00B3BF"/>
<path d="M40.7683 40.8961C41.0509 39.8846 41.3626 38.9181 42.0889 38.1741C42.4613 37.7901 42.9341 37.4883 43.4729 37.9331C43.9457 38.325 43.8083 38.7487 43.5495 39.22C43.1692 39.9084 42.8469 40.626 42.5142 41.3383C42.2897 41.8176 41.9859 42.1565 41.3996 42.0056C40.8132 41.8547 40.7498 41.378 40.7683 40.8961Z" fill="#00B3BF"/>
<path d="M40.6175 23.1076C41.4099 23.2083 42.0913 23.338 42.6671 23.7802C43.0289 24.045 43.3089 24.4131 43.1108 24.9056C42.9127 25.3981 42.4954 25.4881 42.0226 25.3769C41.468 25.2445 40.9186 25.1121 40.3692 24.9559C39.7037 24.7732 38.8426 24.707 39.0487 23.6955C39.2679 22.7237 40.0945 23.1394 40.6175 23.1076Z" fill="#00B3BF"/>
<path d="M20.2384 25.9463C20.7403 25.9463 21.0308 26.0866 21.1708 26.4759C21.2521 26.6602 21.2605 26.8686 21.1943 27.0588C21.1281 27.2491 20.9922 27.407 20.8142 27.5006C19.9611 27.927 19.071 28.2791 18.1889 28.6419C18.0233 28.7076 17.839 28.7077 17.6733 28.6423C17.5075 28.577 17.3727 28.4509 17.2962 28.2897C17.1753 28.1291 17.1187 27.929 17.1372 27.7287C17.1558 27.5284 17.2483 27.3423 17.3965 27.2067C18.2213 26.5508 19.1995 26.1169 20.2384 25.9463Z" fill="#00B3BF"/>
<path d="M50.4962 33.6516C49.8068 33.3868 49.6378 32.836 50.0736 32.2349C50.7083 31.3674 51.6562 30.783 52.7148 30.6065C53.4279 30.4767 53.7712 30.948 53.6973 31.6418C53.6392 32.0575 51.0059 33.7284 50.4962 33.6516Z" fill="#00B3BF"/>
<path d="M49.0217 56C48.1633 55.8676 47.3974 55.804 47.437 54.9117C47.4846 54.0802 48.2056 54.1173 48.8289 54.0988C49.3572 54.0988 49.8854 54.0299 50.3952 54.0643C50.9049 54.0987 51.3011 54.3847 51.3169 54.9699C51.3328 55.5551 50.9498 55.7458 50.4982 55.8279C49.9541 55.9417 49.3889 55.9602 49.0217 56Z" fill="#00B3BF"/>
<path d="M55.855 51.5755C56.4308 51.7211 56.8243 52.1607 56.4545 52.7803C55.9754 53.6216 55.2806 54.3192 54.442 54.8006C53.8609 55.1157 53.3089 54.8589 53.2059 54.1201C53.1187 53.482 55.1075 51.5305 55.855 51.5755Z" fill="#00B3BF"/>
</svg>
